<?xml version="1.0" encoding="utf-8"?>
<!-- Generator: Adobe Illustrator 19.1.0, SVG Export Plug-In . SVG Version: 6.00 Build 0)  -->
<svg version="1.1" id="Layer_1" xmlns="http://www.w3.org/2000/svg" xmlns:xlink="http://www.w3.org/1999/xlink" x="0px" y="0px"
	 viewBox="-20 18.6 34.3 38.4" style="enable-background:new -20 18.6 34.3 38.4;" xml:space="preserve">
<style type="text/css">
path { fill: white; }
</style>
<path class="st0" d="M11.6,24.2c-0.7-0.9-1.8-1.4-2.9-1.4c-0.6,0-1.3,0.2-1.8,0.5c-0.1-0.7-0.3-1.5-0.8-2.1
	c-0.7-0.9-1.8-1.4-2.9-1.4c-0.9,0-1.7,0.3-2.3,0.8c-0.1-0.2-0.3-0.5-0.5-0.7c-0.7-0.9-1.8-1.4-2.9-1.4c-1.5,0-2.8,0.9-3.4,2.2
	c-0.7-0.8-1.7-1.3-2.8-1.3c-1.8,0-3.3,1.3-3.7,3l-0.5,2.5c0,0,0,0,0,0h-1.4c-0.9,0-1.7,0.6-1.8,1.5l-2,9.9c-0.4,3.9,3.7,10.7,4,11.1
	c0,0.1,0.1,0.1,0.1,0.2v7.2c0,1,0.8,1.9,1.9,1.9H4.6c1,0,1.9-0.8,1.9-1.9v-6.1c0.2-0.2,0.6-0.5,0.8-0.6l0.3-0.2
	c2.1-1.5,2.9-10,3.1-12.6c0-0.2,0-0.3-0.1-0.4c0.1-0.3,0.2-0.6,0.3-0.9l1.4-6.7C12.6,26.2,12.3,25.1,11.6,24.2z M3.2,21.5
	c0.7,0,1.3,0.3,1.7,0.8c0.4,0.5,0.6,1.2,0.4,1.8l-1.7,8.7c-0.2,1-1.1,1.7-2.1,1.7c-1.1,0-2-0.8-2.1-1.8c1.3-0.4,2.3-1.5,2.6-2.9
	c0.2-1.2-0.1-2.4-0.8-3.3c-0.2-0.2-0.3-0.4-0.5-0.5l0.6-2.8c0-0.1,0-0.3,0-0.4c0,0,0,0,0.1-0.1C1.7,21.9,2.4,21.5,3.2,21.5z
	 M-2.5,20.2c0.7,0,1.3,0.3,1.7,0.8c0.4,0.5,0.6,1.2,0.4,1.8l-0.5,2.4C-1.2,25-1.6,25-1.9,25h-3.3l0.6-3.1
	C-4.4,20.9-3.5,20.2-2.5,20.2z M-8.7,21c0.7,0,1.3,0.3,1.7,0.8c0.4,0.5,0.6,1.2,0.4,1.8L-6.9,25h-4.4l0.5-2.2
	C-10.6,21.8-9.7,21-8.7,21z M6.7,46.6l-0.3,0.2c-0.9,0.6-1.5,1.1-1.5,1.7v6.3c0,0.2-0.1,0.3-0.3,0.3h-16.8c-0.2,0-0.3-0.1-0.3-0.3
	v-7.2c0-0.4-0.1-0.8-0.3-1.1c-1.1-1.8-4-7.2-3.7-9.9l2-9.8c0-0.1,0.2-0.2,0.3-0.2h0.9c0,0,0,0,0,0h11.4c0.7,0,1.4,0.3,1.8,0.9
	c0.5,0.6,0.6,1.3,0.5,2c-0.2,1.1-1.2,1.9-2.3,1.9h-5.8c-0.4,0-0.8,0.4-0.8,0.8c0,0.4,0.4,0.8,0.8,0.8h5.5c0.3,1.8,1.8,3.2,3.7,3.2
	c1,0,1.9-0.4,2.6-1c0.1,0.2,0.2,0.4,0.4,0.6C5.1,36.5,6.2,37,7.3,37c0.6,0,1.2-0.2,1.8-0.5C8.6,41.1,7.7,46,6.7,46.6z M10.8,27
	l-1.4,6.7c-0.2,1-1.1,1.7-2.1,1.7c-0.7,0-1.3-0.3-1.7-0.8c-0.4-0.5-0.6-1.2-0.4-1.8c0,0,0-0.1,0-0.1l1.3-6.3
	c0.1-0.1,0.1-0.2,0.1-0.3c0.2-1,1.1-1.7,2.1-1.7c0.7,0,1.3,0.3,1.7,0.8C10.8,25.7,11,26.4,10.8,27z"/>
</svg>
