<?xml version="1.0" encoding="utf-8"?>
<!-- Generator: Adobe Illustrator 19.1.0, SVG Export Plug-In . SVG Version: 6.00 Build 0)  -->
<svg version="1.1" id="Layer_1" xmlns="http://www.w3.org/2000/svg" xmlns:xlink="http://www.w3.org/1999/xlink" x="0px" y="0px"
	 viewBox="-13 19.1 48.5 36.9" style="enable-background:new -13 19.1 48.5 36.9;" xml:space="preserve">
<style type="text/css">
path { fill: white; }
</style>
<g id="XMLID_80_">
	
	<circle id="XMLID_86_" class="st0" cx="-3.1" cy="32.1" r="1"/>
	
  	<path id="XMLID_82_" class="st1" d="M34.4,39.6c-0.7,0.1-1.4,0-2.1-0.3c0.5-1.1,0.7-2.3,0.4-3.5c-0.3-1.3-1.4-1.8-2.4-1.6
		c-1,0.2-1.9,1-1.7,2.3c0.2,1.2,0.8,2.4,1.7,3.2c-0.6,0.6-1.3,0.9-2.1,1.1c0.1-0.6,0.1-1.2,0.1-1.8c0-8.3-6.7-15-15-15H4.2
		c-0.6-1.9-3-3.9-4.9-4.7C-1.3,19-1.9,19-2.5,19.2c-0.6,0.2-1,0.8-1.2,1.5s-0.1,1.2-0.1,1.8c0.1,1,0.2,2.2-0.9,4.6
		c-1.5,1.2-2.8,2.7-3.8,4.3H-10c-1.6,0-3,1.3-3,3v5c0,1.6,1.3,2.9,2.9,3c0.8,3.7,3.1,7,6.3,9.1v1.6c0,1.6,1.3,2.9,3,2.9h5
		c1.3,0,2.4-0.8,2.8-1.9h6c0.4,1.2,1.5,1.9,2.8,1.9h5c1.6,0,3-1.2,3-2.9v-3.2c2.2-2.1,3.7-4.7,4.3-7.6c0.1,0,0.1,0,0.2,0h0.1
		c1.3-0.2,2.4-0.8,3.3-1.7c0.9,0.5,2,0.7,3.1,0.5c0.4-0.1,0.7-0.3,0.7-0.8C35.5,39.8,34.9,39.5,34.4,39.6z M22.4,49
		c-0.2,0.1-0.2,0.3-0.2,0.6v3.5c0,0.8-0.7,1.4-1.5,1.4h-5c-0.8,0-1.4-0.5-1.4-1.2c0-0.4-0.4-0.7-0.7-0.7l0,0h-0.2h-7
		c-0.4,0-0.7,0.3-0.7,0.7c-0.1,0.8-0.7,1.2-1.4,1.2h-5c-0.8,0-1.5-0.6-1.5-1.4v-2c0-0.3-0.1-0.5-0.3-0.6c-3.2-2-5.4-5.3-6.1-9
		c-0.1-0.4-0.4-0.6-0.7-0.6H-10c-0.8,0-1.5-0.7-1.5-1.5v-5c0-0.8,0.7-1.5,1.5-1.5h2c0.3,0,0.5-0.2,0.7-0.4c0.9-1.7,2.2-3.2,3.7-4.3
		c0.1-0.1,0.1-0.2,0.2-0.3c1.3-2.8,1.2-4.4,1.1-5.5c0-0.5-0.1-0.8,0-1.1c0.1-0.3,0.3-0.6,0.4-0.6c0.2-0.1,0.4,0,0.6,0.1
		c2,0.9,4.1,2.9,4.1,4c0,0.4,0.3,0.7,0.8,0.7h9.7c7.5-0.1,13.5,6,13.5,13.5C26.8,42.8,25.2,46.4,22.4,49z M31.1,38.4
		c-0.5-0.6-0.9-1.3-1-2.1c-0.1-0.5,0.3-0.6,0.5-0.6h0.1c0.2,0,0.5,0.1,0.6,0.5C31.5,36.9,31.4,37.7,31.1,38.4z"/>
	
	<path id="XMLID_81_" class="st2" d="M14.3,26.4h-3.7c-0.4,0-0.8,0.3-0.8,0.8s0.3,0.8,0.8,0.8h3.7c1.9,0,3.7,0.8,5.1,2.1
		c0.1,0.1,0.3,0.2,0.5,0.2s0.4-0.1,0.5-0.2c0.3-0.3,0.3-0.8,0-1.1C18.8,27.3,16.6,26.4,14.3,26.4z"/>
</g>
</svg>
