<?xml version="1.0" encoding="utf-8"?>
<!-- Generator: Adobe Illustrator 19.1.0, SVG Export Plug-In . SVG Version: 6.00 Build 0)  -->
<svg version="1.1" id="Layer_1" xmlns="http://www.w3.org/2000/svg" xmlns:xlink="http://www.w3.org/1999/xlink" x="0px" y="0px"
	 viewBox="-20 18.6 33.6 38.4" style="enable-background:new -20 18.6 33.6 38.4;" xml:space="preserve">
<style type="text/css">
path {
fill: white;
}
</style>
<g>
	
	<path class="st0" d="M-4.2,26.2c-5,0.5-9.1,4.2-10,9.1c-0.7,3.9,0.9,8,4.1,10.6c1.1,0.9,1.7,2.2,1.7,3.7v2.1c0,0.4,0.3,0.8,0.8,0.8
		h9.1c0.4,0,0.8-0.3,0.8-0.8v-2.3c0-1.4,0.6-2.8,1.7-3.7c2.5-2.1,3.9-5.2,3.9-8.4c0-3.1-1.3-6.1-3.6-8.2C2,26.9-1,25.9-4.2,26.2z
		 M3,44.5c-1.4,1.2-2.2,3-2.2,4.9V51h-7.6v-1.4c0-1.9-0.8-3.7-2.3-4.9c-2.8-2.3-4.1-5.8-3.5-9.2c0.7-4.2,4.4-7.5,8.6-7.9
		c2.7-0.3,5.3,0.6,7.3,2.5c2,1.8,3.1,4.4,3.1,7.1C6.4,40,5.2,42.7,3,44.5z"/>
	
	<path class="st1" d="M-0.5,39.5c-1.1,0-2.1,0.5-2.7,1.3c-0.6-0.8-1.6-1.3-2.7-1.3c-0.4,0-0.8,0.3-0.8,0.8s0.3,0.8,0.8,0.8
		c1.1,0,2,0.9,2,2v0.1v0.1v6.3c0,0.4,0.3,0.8,0.8,0.8s0.8-0.3,0.8-0.8v-6.4v-0.1V43c0-1.1,0.9-2,2-2c0.4,0,0.8-0.3,0.8-0.8
		S-0.1,39.5-0.5,39.5z"/>
	<path class="st2" d="M1.5,53.1h-9.1c-0.4,0-0.8,0.3-0.8,0.8v2.4c0,0.4,0.3,0.8,0.8,0.8h9.1c0.4,0,0.8-0.3,0.8-0.8v-2.4
		C2.3,53.4,1.9,53.1,1.5,53.1z M0.8,55.5h-7.6v-0.9h7.6V55.5z"/>
	<path class="st3" d="M-3,23.2c0.6,0,1-0.4,1-1v-2.6c0-0.6-0.4-1-1-1s-1,0.4-1,1v2.6C-4,22.7-3.5,23.2-3,23.2z"/>
	<path class="st3" d="M7,27.8c0.3,0,0.5-0.1,0.7-0.3l2-2c0.4-0.4,0.4-1,0-1.4c-0.4-0.4-1-0.4-1.4,0l-2,2c-0.4,0.4-0.4,1,0,1.4
		C6.5,27.7,6.7,27.8,7,27.8z"/>
	<path class="st3" d="M2.1,24.4c0.1,0.1,0.3,0.1,0.4,0.1c0.4,0,0.8-0.2,0.9-0.6l1-2.4c0.2-0.5,0-1.1-0.5-1.3c-0.5-0.2-1.1,0-1.3,0.5
		l-1,2.4C1.4,23.6,1.6,24.2,2.1,24.4z"/>
	<path class="st3" d="M-16.3,30.3l-2.3-1c-0.5-0.2-1.1,0-1.3,0.5c-0.2,0.5,0,1.1,0.5,1.3l2.3,1c0.1,0.1,0.3,0.1,0.4,0.1
		c0.4,0,0.8-0.2,0.9-0.6C-15.5,31.1-15.8,30.5-16.3,30.3z"/>
	<path class="st3" d="M-9.9,23.8c0.2,0.4,0.5,0.6,0.9,0.6c0.1,0,0.3,0,0.4-0.1c0.5-0.2,0.7-0.8,0.5-1.3l-1-2.3
		c-0.2-0.5-0.8-0.7-1.3-0.5c-0.5,0.3-0.7,0.8-0.5,1.3L-9.9,23.8z"/>
	<path class="st3" d="M13.5,29.7c-0.2-0.5-0.8-0.7-1.3-0.5l-2.7,1.2C9,30.5,8.8,31.1,9,31.6c0.2,0.4,0.5,0.6,0.9,0.6
		c0.1,0,0.3,0,0.4-0.1l2.7-1.2C13.5,30.8,13.8,30.2,13.5,29.7z"/>
	<path class="st3" d="M-12.9,27.1c0.4-0.4,0.4-1,0-1.4l-1.7-1.6c-0.4-0.4-1-0.4-1.4,0s-0.4,1,0,1.4l1.7,1.7c0.2,0.2,0.5,0.3,0.7,0.3
		S-13.1,27.3-12.9,27.1z"/>
</g>
</svg>
