<?xml version="1.0" encoding="utf-8"?>
<!-- Generator: Adobe Illustrator 19.0.0, SVG Export Plug-In . SVG Version: 6.00 Build 0)  -->
<svg version="1.1" id="Layer_1" xmlns="http://www.w3.org/2000/svg" xmlns:xlink="http://www.w3.org/1999/xlink" x="0px" y="0px"
	 viewBox="0 0 38.5 38.4" enable-background="new 0 0 38.5 38.4" xml:space="preserve">
<g id="XMLID_82_">
	<path id="XMLID_83_" fill="#9CB2B7" d="M31.7,19.2c0,2-0.5,3.9-1.3,5.5c-0.3,0.6-0.2,1.3,0.3,1.9l2.7,2.7c0.7,0.7,2,0.6,2.5-0.3
		c1.7-2.8,2.7-6.2,2.7-9.8s-0.9-6.9-2.7-9.8c-0.6-0.9-1.8-1.1-2.5-0.3l-2.7,2.7c-0.5,0.5-0.6,1.3-0.3,1.9
		C31.2,15.3,31.7,17.2,31.7,19.2z"/>
</g>
<g id="XMLID_80_">
	<g id="XMLID_81_">
		<path id="SVGID_1_" fill="#4F5D62" d="M19.2,31.4c-6.9,0-12.6-5.8-12.3-12.8C7.1,12.2,12.6,7,19,6.9c2.1,0,4.2,0.5,6,1.4
			c0.5,0.2,1,0.2,1.4-0.2l3.2-3.2c0.6-0.6,0.5-1.5-0.2-1.9c-3.3-2-7.2-3.1-11.5-2.9C8.4,0.7,0.6,8.4,0,18
			c-0.7,11.2,8.1,20.4,19.1,20.4c3.8,0,7.2-1.1,10.2-3c0.6-0.4,0.8-1.3,0.2-1.9l-3.2-3.2C26,29.9,25.5,29.8,25,30
			C23.2,31,21.2,31.4,19.2,31.4z"/>
	</g>
</g>
</svg>
