<?xml version="1.0" encoding="utf-8"?>
<!-- Generator: Adobe Illustrator 19.1.0, SVG Export Plug-In . SVG Version: 6.00 Build 0)  -->
<svg version="1.1" id="Layer_1" xmlns="http://www.w3.org/2000/svg" xmlns:xlink="http://www.w3.org/1999/xlink" x="0px" y="0px"
	 viewBox="-18 18.6 38.5 38.4" style="enable-background:new -18 18.6 38.5 38.4;" xml:space="preserve">
<style type="text/css">
	.st0{fill:#B8D3F4;}
	.st1{fill:#7FADF2;}
</style>
<path class="st0" d="M13.6,37.9c0,2.4-0.7,4.7-1.9,6.6l4.9,4.9c2.4-3.2,3.9-7.2,3.9-11.5c0-4.3-1.5-8.3-3.9-11.5l-4.9,4.9
	C12.9,33.2,13.6,35.4,13.6,37.9z"/>
<path class="st1" d="M1.4,50.1c-6.7,0-12.2-5.5-12.2-12.2c0-6.7,5.5-12.2,12.2-12.2c2.5,0,4.7,0.7,6.6,2l4.9-4.9
	c-3.2-2.4-7.2-3.9-11.5-3.9c-10.5,0-19.1,8.5-19.1,19.1S-9.1,57,1.4,57c4.4,0,8.4-1.5,11.6-3.9l-4.9-4.9C6.2,49.4,3.9,50.1,1.4,50.1
	z"/>
</svg>
