<?xml version="1.0" encoding="utf-8"?>
<!-- Generator: Adobe Illustrator 19.1.0, SVG Export Plug-In . SVG Version: 6.00 Build 0)  -->
<svg version="1.1" id="Layer_1" xmlns="http://www.w3.org/2000/svg" xmlns:xlink="http://www.w3.org/1999/xlink" x="0px" y="0px"
	 viewBox="-18 18.6 38.5 38.4" style="enable-background:new -18 18.6 38.5 38.4;" xml:space="preserve">
<style type="text/css">
	.st0{fill:#6F8393;}
	.st1{fill:#4F5E70;}
</style>
<path class="st0" d="M13.6,37.8c0,2.4-0.7,4.7-2,6.6l5,5c2.4-3.2,3.9-7.2,3.9-11.6c0-4.4-1.5-8.4-3.9-11.6l-4.9,4.9
	C12.9,33,13.6,35.3,13.6,37.8z"/>
<path class="st1" d="M1.3,50C-5.5,50-11,44.5-11,37.8c0-6.8,5.5-12.3,12.3-12.3c2.5,0,4.8,0.7,6.7,2l4.9-4.9
	c-3.2-2.4-7.2-3.9-11.6-3.9c-10.6,0-19.2,8.6-19.2,19.2S-9.3,57,1.3,57c4.4,0,8.4-1.5,11.6-4l-5-5C6.1,49.3,3.8,50,1.3,50z"/>
</svg>
