<?xml version="1.0" encoding="utf-8"?>
<!-- Generator: Adobe Illustrator 19.0.0, SVG Export Plug-In . SVG Version: 6.00 Build 0)  -->
<svg version="1.1" id="Layer_1" xmlns="http://www.w3.org/2000/svg" xmlns:xlink="http://www.w3.org/1999/xlink" x="0px" y="0px"
	 viewBox="-288.7 377.6 34.3 38.4" enable-background="new -288.7 377.6 34.3 38.4" xml:space="preserve">
<linearGradient id="SVGID_1_" gradientUnits="userSpaceOnUse" x1="-271.6202" y1="415.9606" x2="-271.6202" y2="377.6771">
	<stop  offset="0" style="stop-color:#CFFF4F"/>
	<stop  offset="1" style="stop-color:#E9FD44"/>
</linearGradient>
<path fill="url(#SVGID_1_)" d="M-261.2,395.7l6.4-1.5c0.2,0,0.3-0.2,0.2-0.3l-3.7-16c0-0.2-0.2-0.3-0.3-0.2l-29.8,6.8
	c-0.2,0-0.3,0.2-0.2,0.3l3.7,16c0,0.2,0.2,0.3,0.3,0.2l1.7-0.4c0,0.8,0.4,1.6,1.1,2.1l3.2,2.4c0.1,3.8,1.9,5.3,2.8,5.8v5h14.4l0-5.3
	l1.5-8.7c0.3-2.5,0-3.3-0.8-5.2C-260.8,396.6-261.2,395.7-261.2,395.7z M-259.2,379.5l3.1,13.5c0,0.2-0.1,0.3-0.2,0.3l-10.1,2.3
	l-2.7-3.8c0.7-0.6,1-1.4,0.8-2.3c-0.3-1.2-1.1-1.8-2.8-1.9l-0.3-1.2c0.2,0,0.4,0.1,0.6,0.1c0.1,0,0.2,0,0.3,0c0.1,0,0.1,0,0.2,0
	c0.2-0.1,0.5-0.2,0.6-0.4c0.1-0.2,0.2-0.5,0.1-0.7c-0.1-0.3-0.3-0.6-0.7-0.7c-0.4-0.1-0.8-0.2-1.3-0.2c-0.1,0-0.2,0-0.3,0
	c-0.1-0.3-0.4-0.6-0.7-0.6c-0.1,0-0.1,0-0.2,0c-0.2,0-0.4,0.2-0.5,0.3c-0.1,0.2-0.1,0.3-0.1,0.5c-1.3,0.5-2,1.6-1.7,2.7
	c0.3,1.1,1,1.6,1.9,1.8c-0.5,0.1-1,0.3-1.5,0.6c-1.4,1-1.8,3-0.9,4.5l1.7,2.7l-9.9,2.3c-0.2,0-0.3-0.1-0.3-0.2l-3.1-13.5
	c0-0.2,0.1-0.3,0.2-0.3l27.3-6.2C-259.4,379.2-259.3,379.3-259.2,379.5z M-270.2,390.3c-0.1-0.1-0.2-0.2-0.3-0.3l-0.1-0.4
	c0.4,0.1,0.4,0.2,0.5,0.4C-270.2,390.1-270.2,390.2-270.2,390.3z M-272.6,387.5c-0.3-0.1-0.4-0.2-0.4-0.4c0-0.1-0.1-0.3,0.2-0.5
	L-272.6,387.5z M-273.9,402.2c-0.2-0.2-0.4-0.3-0.6-0.5l-3.3-2.3l3.2-0.7l1.7,1.4C-273.3,400.7-273.7,401.4-273.9,402.2z
	 M-281.6,400.4l2.1-0.5l4.3,2.9c0.7,0.5,1,0.9,1.1,1l0,0.1c0,0.1,0,0.2,0,0.3c0,0.2,0,0.5,0.1,0.7l0,0c0,0.1-0.4,0.6-1,0.7
	c-0.1,0-0.1,0-0.2,0c-0.4,0-0.8-0.2-1.3-0.5l-4.4-3.3C-281.5,401.4-281.7,400.9-281.6,400.4z M-275.4,406.9c0.2,0,0.3,0,0.5,0
	c0.4-0.1,0.8-0.3,1.1-0.5c0.4,1.1,1.2,2.1,2.3,3.1c0.1,0.1,0.3,0.2,0.4,0.2c0.2,0,0.4-0.1,0.5-0.2c0.2-0.3,0.2-0.7-0.1-0.9
	c-1.5-1.3-2.3-2.7-2.3-4.2c-0.1-2.3,1.7-4.2,1.8-4.2l0.4-0.4l-3.6-5.8c-0.6-0.9-0.3-2.1,0.6-2.8c0.1-0.1,0.2-0.1,0.3-0.2
	c0.3-0.1,0.5-0.2,0.8-0.2c0.1,0,0.3,0,0.4,0c0.1,0,0.3,0.1,0.4,0.1c0.4,0.2,0.7,0.5,1,0.8l5.2,7.2c0.1,0.2,0.3,0.3,0.5,0.3
	c0.1,0,0.3,0,0.4-0.1c0.3-0.2,0.4-0.6,0.1-0.9l-1.1-1.5l3.2-0.7l0.5,1.3c0.7,1.8,1,2.4,0.7,4.5l-1.5,8.8v4.1h-11.8v-4.1l0-0.5
	l-0.4-0.1c0,0-1.8-0.6-2.3-3.7C-276.6,406.7-276,406.9-275.4,406.9z"/>
</svg>
