<?xml version="1.0" encoding="utf-8"?>
<!-- Generator: Adobe Illustrator 19.0.0, SVG Export Plug-In . SVG Version: 6.00 Build 0)  -->
<svg version="1.1" id="Layer_1" xmlns="http://www.w3.org/2000/svg" xmlns:xlink="http://www.w3.org/1999/xlink" x="0px" y="0px"
	 viewBox="0 0 33.6 38.4" enable-background="new 0 0 33.6 38.4" xml:space="preserve">
<g>
	<linearGradient id="SVGID_1_" gradientUnits="userSpaceOnUse" x1="16.8274" y1="7.5655" x2="16.8274" y2="33.8301">
		<stop  offset="0" style="stop-color:#22E4FF"/>
		<stop  offset="1" style="stop-color:#65FAF6"/>
	</linearGradient>
	<path fill="url(#SVGID_1_)" d="M15.8,7.6c-5,0.5-9.1,4.2-10,9.1c-0.7,3.9,0.9,8,4.1,10.6c1.1,0.9,1.7,2.2,1.7,3.7v2.1
		c0,0.4,0.3,0.8,0.8,0.8h9.1c0.4,0,0.8-0.3,0.8-0.8v-2.3c0-1.4,0.6-2.8,1.7-3.7c2.5-2.1,3.9-5.2,3.9-8.4c0-3.1-1.3-6.1-3.6-8.2
		C22,8.3,19,7.3,15.8,7.6z M23,25.9c-1.4,1.2-2.2,3-2.2,4.9v1.6h-7.6V31c0-1.9-0.8-3.7-2.3-4.9c-2.8-2.3-4.1-5.8-3.5-9.2
		c0.7-4.2,4.4-7.5,8.6-7.9c2.7-0.3,5.3,0.6,7.3,2.5c2,1.8,3.1,4.4,3.1,7.1C26.4,21.4,25.2,24.1,23,25.9z"/>
	<linearGradient id="SVGID_2_" gradientUnits="userSpaceOnUse" x1="16.8249" y1="20.8823" x2="16.8249" y2="31.7305">
		<stop  offset="0" style="stop-color:#22E4FF"/>
		<stop  offset="1" style="stop-color:#65FAF6"/>
	</linearGradient>
	<path fill="url(#SVGID_2_)" d="M19.5,20.9c-1.1,0-2.1,0.5-2.7,1.3c-0.6-0.8-1.6-1.3-2.7-1.3c-0.4,0-0.8,0.3-0.8,0.8
		s0.3,0.8,0.8,0.8c1.1,0,2,0.9,2,2c0,0,0,0.1,0,0.1c0,0,0,0.1,0,0.1V31c0,0.4,0.3,0.8,0.8,0.8s0.8-0.3,0.8-0.8v-6.4c0,0,0-0.1,0-0.1
		c0,0,0-0.1,0-0.1c0-1.1,0.9-2,2-2c0.4,0,0.8-0.3,0.8-0.8S19.9,20.9,19.5,20.9z"/>
	<linearGradient id="SVGID_3_" gradientUnits="userSpaceOnUse" x1="16.965" y1="34.4907" x2="16.965" y2="38.4004">
		<stop  offset="0" style="stop-color:#22E4FF"/>
		<stop  offset="1" style="stop-color:#65FAF6"/>
	</linearGradient>
	<path fill="url(#SVGID_3_)" d="M21.5,34.5h-9.1c-0.4,0-0.8,0.3-0.8,0.8v2.4c0,0.4,0.3,0.8,0.8,0.8h9.1c0.4,0,0.8-0.3,0.8-0.8v-2.4
		C22.3,34.8,21.9,34.5,21.5,34.5z M20.8,36.9h-7.6V36h7.6V36.9z"/>
	<linearGradient id="SVGID_4_" gradientUnits="userSpaceOnUse" x1="17.0402" y1="0" x2="17.0402" y2="4.5757">
		<stop  offset="0" style="stop-color:#22E4FF"/>
		<stop  offset="1" style="stop-color:#65FAF6"/>
	</linearGradient>
	<path fill="url(#SVGID_4_)" d="M17,4.6c0.6,0,1-0.4,1-1V1c0-0.6-0.4-1-1-1s-1,0.4-1,1v2.6C16,4.1,16.5,4.6,17,4.6z"/>
	<linearGradient id="SVGID_5_" gradientUnits="userSpaceOnUse" x1="27.9973" y1="5.165" x2="27.9973" y2="9.1685">
		<stop  offset="0" style="stop-color:#22E4FF"/>
		<stop  offset="1" style="stop-color:#65FAF6"/>
	</linearGradient>
	<path fill="url(#SVGID_5_)" d="M27,9.2c0.3,0,0.5-0.1,0.7-0.3l2-2c0.4-0.4,0.4-1,0-1.4s-1-0.4-1.4,0l-2,2c-0.4,0.4-0.4,1,0,1.4
		C26.5,9.1,26.7,9.2,27,9.2z"/>
	<linearGradient id="SVGID_6_" gradientUnits="userSpaceOnUse" x1="23.008" y1="1.4744" x2="23.008" y2="5.8481">
		<stop  offset="0" style="stop-color:#22E4FF"/>
		<stop  offset="1" style="stop-color:#65FAF6"/>
	</linearGradient>
	<path fill="url(#SVGID_6_)" d="M22.1,5.8c0.1,0.1,0.3,0.1,0.4,0.1c0.4,0,0.8-0.2,0.9-0.6l1-2.4c0.2-0.5,0-1.1-0.5-1.3
		c-0.5-0.2-1.1,0-1.3,0.5l-1,2.4C21.4,5,21.6,5.6,22.1,5.8z"/>
	<linearGradient id="SVGID_7_" gradientUnits="userSpaceOnUse" x1="2.1701" y1="10.6577" x2="2.1701" y2="13.6411">
		<stop  offset="0" style="stop-color:#22E4FF"/>
		<stop  offset="1" style="stop-color:#65FAF6"/>
	</linearGradient>
	<path fill="url(#SVGID_7_)" d="M3.7,11.7l-2.3-1c-0.5-0.2-1.1,0-1.3,0.5c-0.2,0.5,0,1.1,0.5,1.3l2.3,1c0.1,0.1,0.3,0.1,0.4,0.1
		c0.4,0,0.8-0.2,0.9-0.6C4.5,12.5,4.2,11.9,3.7,11.7z"/>
	<linearGradient id="SVGID_8_" gradientUnits="userSpaceOnUse" x1="10.507" y1="1.5479" x2="10.507" y2="5.8481">
		<stop  offset="0" style="stop-color:#22E4FF"/>
		<stop  offset="1" style="stop-color:#65FAF6"/>
	</linearGradient>
	<path fill="url(#SVGID_8_)" d="M10.1,5.2c0.2,0.4,0.5,0.6,0.9,0.6c0.1,0,0.3,0,0.4-0.1c0.5-0.2,0.7-0.8,0.5-1.3l-1-2.3
		c-0.2-0.5-0.8-0.7-1.3-0.5C9.1,1.9,8.9,2.4,9.1,2.9L10.1,5.2z"/>
	<linearGradient id="SVGID_9_" gradientUnits="userSpaceOnUse" x1="31.279" y1="10.4819" x2="31.279" y2="13.6411">
		<stop  offset="0" style="stop-color:#22E4FF"/>
		<stop  offset="1" style="stop-color:#65FAF6"/>
	</linearGradient>
	<path fill="url(#SVGID_9_)" d="M33.5,11.1c-0.2-0.5-0.8-0.7-1.3-0.5l-2.7,1.2C29,11.9,28.8,12.5,29,13c0.2,0.4,0.5,0.6,0.9,0.6
		c0.1,0,0.3,0,0.4-0.1l2.7-1.2C33.5,12.2,33.8,11.6,33.5,11.1z"/>
	<linearGradient id="SVGID_10_" gradientUnits="userSpaceOnUse" x1="5.5266" y1="5.165" x2="5.5266" y2="8.8354">
		<stop  offset="0" style="stop-color:#22E4FF"/>
		<stop  offset="1" style="stop-color:#65FAF6"/>
	</linearGradient>
	<path fill="url(#SVGID_10_)" d="M7.1,8.5c0.4-0.4,0.4-1,0-1.4L5.4,5.5C5,5.1,4.4,5.1,4,5.5c-0.4,0.4-0.4,1,0,1.4l1.7,1.7
		c0.2,0.2,0.5,0.3,0.7,0.3S6.9,8.7,7.1,8.5z"/>
</g>
</svg>
