<?xml version="1.0" encoding="utf-8"?>
<!-- Generator: Adobe Illustrator 19.0.0, SVG Export Plug-In . SVG Version: 6.00 Build 0)  -->
<svg version="1.1" id="Layer_1" xmlns="http://www.w3.org/2000/svg" xmlns:xlink="http://www.w3.org/1999/xlink" x="0px" y="0px"
	 viewBox="0 0 33.6 38.4" enable-background="new 0 0 33.6 38.4" xml:space="preserve">
<linearGradient id="XMLID_87_" gradientUnits="userSpaceOnUse" x1="16.8078" y1="38.3884" x2="16.8078" y2="1.200000e-02">
	<stop  offset="0" style="stop-color:#CFFF4F"/>
	<stop  offset="1" style="stop-color:#E9FD44"/>
</linearGradient>
<path id="XMLID_80_" fill="url(#XMLID_87_)" d="M31.1,5.5c-0.5-0.7-1.3-1.2-2.2-1.3l-0.6-0.1c-0.8-0.1-1.5,0-2.2,0.4
	C26,4,25.9,3.6,25.6,3.2c-0.5-0.7-1.3-1.2-2.2-1.3l-0.5-0.1c-0.9-0.1-1.8,0.1-2.5,0.6c-0.1,0.1-0.2,0.2-0.3,0.2
	c-0.1-0.5-0.3-0.9-0.7-1.3c-0.6-0.7-1.4-1.1-2.3-1.2l-0.5,0c-1.5-0.1-2.8,0.7-3.4,2c-0.5-0.5-1.2-0.8-1.9-0.9l-0.5,0
	C9,0.9,7.4,2.3,7.2,4.1L7,7L6.1,7C4.8,7,3.8,7.9,3.6,9.1L2,19.7c-0.2,1.3,0,2.6,0.6,3.7l3,5.7c0.2,0.4,0.3,0.8,0.3,1.3v7.4
	c0,0.4,0.3,0.8,0.8,0.8h18.1c0.4,0,0.8-0.3,0.8-0.8V31c0-0.2,0.1-0.4,0.2-0.5c3.3-1.5,3.8-10.4,3.8-12.7c0.4-0.5,0.6-1,0.7-1.6
	L31.7,8C31.8,7.1,31.6,6.2,31.1,5.5z M20.5,4.8c0.2-1,1.1-1.7,2.1-1.5l0.5,0.1c0.5,0.1,0.9,0.3,1.2,0.7s0.4,0.9,0.3,1.4l-1.6,9.6
	c-0.2,1-1.1,1.7-2.1,1.5l-0.5-0.1c-0.5-0.1-0.9-0.3-1.2-0.7c-0.2-0.3-0.3-0.7-0.3-1.1c1.7-0.5,3-2,3-3.8c0-1.1-0.4-2.1-1.2-2.8
	c-0.2-0.2-0.4-0.4-0.6-0.5L20.5,4.8z M16.6,1.5l0.5,0c0.5,0,0.9,0.3,1.3,0.7c0.3,0.4,0.5,0.9,0.4,1.4l-0.3,3.3
	c-0.2,0-0.4-0.1-0.6-0.1l-3.6,0l0.2-2.1c0-0.1,0-0.1,0-0.1l0.1-1.5C14.6,2.2,15.6,1.4,16.6,1.5z M8.7,4.3c0.1-1,1-1.8,2-1.7l0.5,0
	c1,0.1,1.7,0.9,1.7,1.9l-0.2,2.4l-4.2,0L8.7,4.3z M25.1,29.1c-0.7,0.3-1.1,1-1.1,1.8v5.9H7.4v-6.6c0-0.7-0.2-1.4-0.5-2l-3-5.7
	c-0.5-0.8-0.6-1.8-0.5-2.7L5.1,9.3c0.1-0.5,0.5-0.8,1-0.8l11.8-0.1c0.7,0,1.3,0.3,1.8,0.7c0.5,0.5,0.7,1.1,0.7,1.8
	c0,1.4-1.1,2.5-2.5,2.5h-6.8c-0.4,0-0.8,0.3-0.8,0.8s0.3,0.8,0.8,0.8h6.3c0,0.6,0.2,1.3,0.6,1.8c0.5,0.7,1.3,1.2,2.2,1.3l0.5,0.1
	c0.2,0,0.4,0,0.5,0c0.7,0,1.4-0.2,2-0.6c0.1-0.1,0.2-0.2,0.3-0.3c0.5,0.8,1.3,1.5,2.3,1.6l0.6,0.1c0.2,0,0.4,0,0.5,0
	c0.3,0,0.7-0.1,1-0.2C27.8,22.9,26.9,28.3,25.1,29.1z M30.2,7.8l-1.3,8.2c-0.1,0.4-0.2,0.7-0.5,1c0,0,0,0-0.1,0
	c-0.1,0.1-0.1,0.1-0.2,0.2c-0.4,0.3-0.9,0.4-1.4,0.3c0,0,0,0,0,0l-0.6-0.1c-0.5-0.1-0.9-0.3-1.2-0.7s-0.4-0.9-0.3-1.4L26,7.1
	c0.1-0.9,0.9-1.6,1.8-1.6c0.1,0,0.2,0,0.3,0l0.6,0.1c0.5,0.1,0.9,0.3,1.2,0.7S30.3,7.3,30.2,7.8z"/>
</svg>
