<?xml version="1.0" encoding="utf-8"?>
<!-- Generator: Adobe Illustrator 19.0.0, SVG Export Plug-In . SVG Version: 6.00 Build 0)  -->
<svg version="1.1" id="Layer_1" xmlns="http://www.w3.org/2000/svg" xmlns:xlink="http://www.w3.org/1999/xlink" x="0px" y="0px"
	 viewBox="-281 378.1 48.5 36.9" enable-background="new -281 378.1 48.5 36.9" xml:space="preserve">
<g id="XMLID_80_">
	
		<linearGradient id="XMLID_2_" gradientUnits="userSpaceOnUse" x1="-271.1" y1="402.0782" x2="-271.1" y2="404.1082" gradientTransform="matrix(1 0 0 -1 0 794.2)">
		<stop  offset="0" style="stop-color:#51F491"/>
		<stop  offset="1" style="stop-color:#67FBB4"/>
	</linearGradient>
	<circle id="XMLID_86_" fill="url(#XMLID_2_)" cx="-271.1" cy="391.1" r="1"/>
	
		<linearGradient id="XMLID_3_" gradientUnits="userSpaceOnUse" x1="-256.756" y1="379.2596" x2="-256.756" y2="416.1001" gradientTransform="matrix(1 0 0 -1 0 794.2)">
		<stop  offset="0" style="stop-color:#51F491"/>
		<stop  offset="1" style="stop-color:#67FBB4"/>
	</linearGradient>
	<path id="XMLID_82_" fill="url(#XMLID_3_)" d="M-233.6,398.6c-0.7,0.1-1.4,0-2.1-0.3c0.5-1.1,0.7-2.3,0.4-3.5
		c-0.3-1.3-1.4-1.8-2.4-1.6c-1,0.2-1.9,1-1.7,2.3c0.2,1.2,0.8,2.4,1.7,3.2c-0.6,0.6-1.3,0.9-2.1,1.1c0.1-0.6,0.1-1.2,0.1-1.8
		c0-8.3-6.7-15-15-15h-9.1c-0.6-1.9-3-3.9-4.9-4.7c-0.6-0.3-1.2-0.3-1.8-0.1c-0.6,0.2-1,0.8-1.2,1.5c-0.2,0.7-0.1,1.2-0.1,1.8
		c0.1,1,0.2,2.2-0.9,4.6c-1.5,1.2-2.8,2.7-3.8,4.3h-1.5c-1.6,0-3,1.3-3,3v5c0,1.6,1.3,2.9,2.9,3c0.8,3.7,3.1,7,6.3,9.1v1.6
		c0,1.6,1.3,2.9,3,2.9h5c1.3,0,2.4-0.8,2.8-1.9h6c0.4,1.2,1.5,1.9,2.8,1.9h5c1.6,0,3-1.2,3-2.9v-3.2c2.2-2.1,3.7-4.7,4.3-7.6
		c0.1,0,0.1,0,0.2,0h0.1c1.3-0.2,2.4-0.8,3.3-1.7c0.9,0.5,2,0.7,3.1,0.5c0.4-0.1,0.7-0.3,0.7-0.8
		C-232.5,398.8-233.1,398.5-233.6,398.6z M-245.6,408c-0.2,0.1-0.2,0.3-0.2,0.6v3.5c0,0.8-0.7,1.4-1.5,1.4h-5
		c-0.8,0-1.4-0.5-1.4-1.2c0-0.4-0.4-0.7-0.7-0.7l0,0h-0.2h-7c-0.4,0-0.7,0.3-0.7,0.7c-0.1,0.8-0.7,1.2-1.4,1.2h-5
		c-0.8,0-1.5-0.6-1.5-1.4v-2c0-0.3-0.1-0.5-0.3-0.6c-3.2-2-5.4-5.3-6.1-9c-0.1-0.4-0.4-0.6-0.7-0.6h-0.7c-0.8,0-1.5-0.7-1.5-1.5v-5
		c0-0.8,0.7-1.5,1.5-1.5h2c0.3,0,0.5-0.2,0.7-0.4c0.9-1.7,2.2-3.2,3.7-4.3c0.1-0.1,0.1-0.2,0.2-0.3c1.3-2.8,1.2-4.4,1.1-5.5
		c0-0.5-0.1-0.8,0-1.1c0.1-0.3,0.3-0.6,0.4-0.6c0.2-0.1,0.4,0,0.6,0.1c2,0.9,4.1,2.9,4.1,4c0,0.4,0.3,0.7,0.8,0.7h9.7
		c7.5-0.1,13.5,6,13.5,13.5C-241.2,401.8-242.8,405.4-245.6,408z M-236.9,397.4c-0.5-0.6-0.9-1.3-1-2.1c-0.1-0.5,0.3-0.6,0.5-0.6
		h0.1c0.2,0,0.5,0.1,0.6,0.5C-236.5,395.9-236.6,396.7-236.9,397.4z"/>
	
		<linearGradient id="XMLID_4_" gradientUnits="userSpaceOnUse" x1="-252.7935" y1="404.9512" x2="-252.7935" y2="408.7896" gradientTransform="matrix(1 0 0 -1 0 794.2)">
		<stop  offset="0" style="stop-color:#51F491"/>
		<stop  offset="1" style="stop-color:#67FBB4"/>
	</linearGradient>
	<path id="XMLID_81_" fill="url(#XMLID_4_)" d="M-253.7,385.4h-3.7c-0.4,0-0.8,0.3-0.8,0.8s0.3,0.8,0.8,0.8h3.7
		c1.9,0,3.7,0.8,5.1,2.1c0.1,0.1,0.3,0.2,0.5,0.2s0.4-0.1,0.5-0.2c0.3-0.3,0.3-0.8,0-1.1C-249.2,386.3-251.4,385.4-253.7,385.4z"/>
</g>
</svg>
