<?xml version="1.0" encoding="utf-8"?>
<!-- Generator: Adobe Illustrator 19.0.0, SVG Export Plug-In . SVG Version: 6.00 Build 0)  -->
<svg version="1.1" id="Layer_1" xmlns="http://www.w3.org/2000/svg" xmlns:xlink="http://www.w3.org/1999/xlink" x="0px" y="0px"
	 viewBox="0 0 48.5 36.9" enable-background="new 0 0 48.5 36.9" xml:space="preserve">
<g id="XMLID_80_">
	<linearGradient id="XMLID_126_" gradientUnits="userSpaceOnUse" x1="9.937" y1="14.0218" x2="9.937" y2="11.9918">
		<stop  offset="0" style="stop-color:#51F491"/>
		<stop  offset="1" style="stop-color:#67FBB4"/>
	</linearGradient>
	<circle id="XMLID_86_" fill="url(#XMLID_126_)" cx="9.9" cy="13" r="1"/>
	<linearGradient id="XMLID_127_" gradientUnits="userSpaceOnUse" x1="24.2441" y1="36.9403" x2="24.2441" y2="-8.672332e-07">
		<stop  offset="0" style="stop-color:#51F491"/>
		<stop  offset="1" style="stop-color:#67FBB4"/>
	</linearGradient>
	<path id="XMLID_82_" fill="url(#XMLID_127_)" d="M47.6,20.5c-0.7,0.1-1.4,0-2.1-0.3c0.5-1.1,0.7-2.3,0.4-3.5
		c-0.3-1.3-1.4-1.8-2.4-1.6c-1,0.2-1.9,1-1.7,2.3c0.2,1.2,0.8,2.4,1.7,3.2c-0.6,0.6-1.3,0.9-2.1,1.1c0.1-0.6,0.1-1.2,0.1-1.8
		c0-8.3-6.7-15-15-15h-9.3C16.6,3,14.2,1,12.3,0.2c-0.6-0.3-1.2-0.3-1.8-0.1c-0.6,0.2-1,0.8-1.2,1.5C9.1,2.3,9.2,2.8,9.2,3.4
		c0.1,1,0.2,2.2-0.9,4.6c-1.5,1.2-2.8,2.7-3.8,4.3H3c-1.6,0-3,1.3-3,3v5c0,1.6,1.3,2.9,2.9,3c0.8,3.7,3.1,7,6.3,9.1V34
		c0,1.6,1.3,3,3,3h5c1.3,0,2.4-0.9,2.8-2h6.2c0.4,1.2,1.5,2,2.8,2h5c1.6,0,3-1.3,3-3v-3.2c2.2-2.1,3.7-4.7,4.3-7.6
		c0.1,0,0.1,0,0.2,0c0,0,0.1,0,0.1,0c1.3-0.2,2.4-0.8,3.3-1.7c0.9,0.5,2,0.7,3.1,0.5c0.4-0.1,0.7-0.4,0.7-0.8
		C48.4,20.7,48.1,20.4,47.6,20.5z M35.6,29.9c-0.2,0.1-0.2,0.3-0.2,0.6V34c0,0.8-0.7,1.5-1.5,1.5h-5c-0.8,0-1.4-0.6-1.4-1.3
		c0-0.4-0.4-0.7-0.7-0.7c0,0,0,0,0,0c0,0-0.2,0-0.2,0h-7.2c-0.4,0-0.7,0.3-0.7,0.7c-0.1,0.8-0.7,1.3-1.4,1.3h-5
		c-0.8,0-1.5-0.7-1.5-1.5v-2c0-0.3-0.1-0.5-0.3-0.6c-3.2-2-5.4-5.3-6.1-9c-0.1-0.4-0.4-0.6-0.7-0.6H3c-0.8,0-1.5-0.7-1.5-1.5v-5
		c0-0.8,0.7-1.5,1.5-1.5h2c0.3,0,0.5-0.2,0.7-0.4c0.9-1.7,2.2-3.2,3.7-4.3C9.5,9,9.5,8.9,9.6,8.8c1.3-2.8,1.2-4.4,1.1-5.5
		c0-0.5-0.1-0.8,0-1.1c0.1-0.3,0.3-0.6,0.4-0.6c0.2-0.1,0.4,0,0.6,0.1c2,0.9,4.1,2.9,4.1,4c0,0.4,0.3,0.7,0.8,0.7h9.9
		C34,6.3,40,12.4,40,19.9C40,23.7,38.4,27.3,35.6,29.9z M44.3,19.3c-0.5-0.6-0.9-1.3-1-2.1c-0.1-0.5,0.3-0.6,0.5-0.6
		c0,0,0.1,0,0.1,0c0.2,0,0.5,0.1,0.6,0.5C44.7,17.8,44.6,18.6,44.3,19.3z"/>
	<linearGradient id="XMLID_128_" gradientUnits="userSpaceOnUse" x1="28.3572" y1="11.1488" x2="28.3572" y2="7.3104">
		<stop  offset="0" style="stop-color:#51F491"/>
		<stop  offset="1" style="stop-color:#67FBB4"/>
	</linearGradient>
	<path id="XMLID_81_" fill="url(#XMLID_128_)" d="M27.5,7.3h-3.9c-0.4,0-0.8,0.3-0.8,0.8s0.3,0.8,0.8,0.8h3.9c1.9,0,3.7,0.8,5.1,2.1
		c0.1,0.1,0.3,0.2,0.5,0.2s0.4-0.1,0.5-0.2c0.3-0.3,0.3-0.8,0-1.1C32,8.2,29.8,7.3,27.5,7.3z"/>
</g>
</svg>
