<?xml version="1.0" encoding="utf-8"?>
<!-- Generator: Adobe Illustrator 19.0.0, SVG Export Plug-In . SVG Version: 6.00 Build 0)  -->
<svg version="1.1" id="Layer_1" xmlns="http://www.w3.org/2000/svg" xmlns:xlink="http://www.w3.org/1999/xlink" x="0px" y="0px"
	 viewBox="-11.6 350 634.6 94.9" enable-background="new -11.6 350 634.6 94.9" xml:space="preserve">
<g id="XMLID_2_">
	<path id="XMLID_27_" fill="#4F5D62" d="M65.9,370.8c-6,0-11.6,2.3-15.8,5.8v-3.7c0-1-0.8-1.6-1.6-1.6H43c-1,0-1.6,0.8-1.6,1.6v70.4
		c0,0.8,0.6,1.6,1.6,1.6h5.6c0.8,0,1.6-0.6,1.6-1.6v-29.5c4.2,3.5,9.8,5.8,15.8,5.8c13.5,0,24.5-11,24.5-24.5
		C90.2,381.6,79.3,370.8,65.9,370.8z M65.9,410.7c-8.7,0-15.6-7.1-15.6-15.6c0-8.7,7.1-15.6,15.6-15.6c8.7,0,15.6,7.1,15.6,15.6
		C81.5,403.8,74.4,410.7,65.9,410.7z"/>
	<path id="XMLID_26_" fill="#4F5D62" d="M172.1,370.8c-6,0-11.4,2.1-15.6,5.6v-2.1c0-1.8-1.4-3.2-3.2-3.2h-2.4
		c-1.8,0-3.2,1.4-3.2,3.2v42.4c0,1.3,1.1,2.4,2.4,2.4h4c1.3,0,2.4-1.1,2.4-2.4v-20.1c0-8.7,7.1-17.1,15.6-17.1
		c5.6,0,15.6,3.1,15.6,17.1c0,8.2,0,16.3,0,20.1c0,1.3,1.1,2.4,2.4,2.4h4c1.3,0,2.4-1.1,2.4-2.4v-20.3
		C196.6,375.1,179.8,370.8,172.1,370.8z"/>
	<path id="XMLID_23_" fill="#4F5D62" d="M142.4,389.9L142.4,389.9c-2.4-11.4-12.9-19.8-25.1-19.2c-12.2,0.6-22.2,10.3-23,22.6
		c-1,14.3,10.3,26.3,24.3,26.3c9.5,0,17.7-5.3,21.7-13.2c0.6-1.1-0.2-2.6-1.4-2.9l-4.8-1c-0.8-0.2-1.6,0.2-2.1,1
		c-2.7,4.3-7.7,7.4-13.2,7.4c-4.8,0-9.2-2.3-12.1-5.6l27.7-11.6L142.4,389.9z M103.1,397c0-0.6-0.2-1.3-0.2-1.9
		c0-8.7,7.1-15.6,15.6-15.6c4.8,0,9.3,2.3,12.1,5.8L103.1,397z"/>
	<path id="XMLID_20_" fill="#4F5D62" d="M12.1,370.4c-13.5,0-24.5,11-24.5,24.5c0,13.5,11,24.5,24.5,24.5s24.5-11,24.5-24.5
		C36.6,381.4,25.6,370.4,12.1,370.4z M12.1,410.6c-8.7,0-15.6-7.1-15.6-15.6c0-8.7,7.1-15.6,15.6-15.6c8.7,0,15.6,7.1,15.6,15.6
		C27.9,403.5,20.8,410.6,12.1,410.6z"/>
	<path id="XMLID_17_" fill="#4F5D62" d="M304.3,370.3c-13.5,0-24.5,11-24.5,24.5c0,13.5,11,24.5,24.5,24.5s24.5-11,24.5-24.5
		C328.8,381.2,317.9,370.3,304.3,370.3z M304.3,410.4c-8.7,0-15.6-7.1-15.6-15.6c0-8.7,7.1-15.6,15.6-15.6c8.7,0,15.6,7.1,15.6,15.6
		C320,403.3,313,410.4,304.3,410.4z"/>
	<path id="XMLID_16_" fill="#4F5D62" d="M516.8,355.8h-5c-1.1,0-1.9,0.8-1.9,1.9v5c0,1.1,0.8,1.9,1.9,1.9h5c1.1,0,1.9-0.8,1.9-1.9
		v-5C518.8,356.6,517.8,355.8,516.8,355.8z"/>
	<path id="XMLID_13_" fill="#4F5D62" d="M619.8,403.2L614,402c-0.6-0.2-1.3,0.2-1.6,0.8c-2.7,4.5-7.7,7.6-13.4,7.6
		c-4.8,0-9.2-2.3-12.1-5.6l27.7-11.6l8.4-3.5l0,0c-2.4-11.4-12.9-19.8-25.1-19.2c-12.2,0.6-22.2,10.5-23,22.7
		c-1,14.3,10.3,26.3,24.3,26.3c9.7,0,18-5.6,21.9-13.7C621.4,404.4,620.7,403.3,619.8,403.2z M583.2,394.6c0-8.7,7.1-15.6,15.6-15.6
		c4.8,0,9.3,2.3,12.1,5.8l-27.7,11.8C583.2,395.9,583.2,395.3,583.2,394.6z"/>
	<path id="XMLID_10_" fill="#4F5D62" d="M422.4,389.5L422.4,389.5c-2.4-11.4-12.9-19.8-25.1-19.2c-12.2,0.6-22.2,10.5-23,22.7
		c-1,14.3,10.3,26.3,24.3,26.3c9.7,0,18-5.6,22.1-13.9c0.5-1-0.2-2.1-1.1-2.3l-5.8-1.1c-0.6-0.2-1.3,0.2-1.6,0.8
		c-2.7,4.5-7.7,7.6-13.4,7.6c-4.8,0-9.2-2.3-12.1-5.6l27.7-11.6L422.4,389.5z M383,396.5c0-0.6-0.2-1.3-0.2-1.9
		c0-8.7,7.1-15.6,15.6-15.6c4.8,0,9.3,2.3,12.1,5.8L383,396.5z"/>
	<path id="XMLID_9_" fill="#4F5D62" d="M343.8,350H338c-0.8,0-1.4,0.6-1.4,1.4V417c0,0.8,0.6,1.6,1.6,1.6h5.6c0.8,0,1.6-0.6,1.6-1.6
		v-65.6C345.4,350.6,344.6,350,343.8,350z"/>
	<path id="XMLID_8_" fill="#4F5D62" d="M363.6,350h-5.8c-0.8,0-1.4,0.6-1.4,1.4V417c0,0.8,0.6,1.6,1.6,1.6h5.6
		c0.8,0,1.6-0.6,1.6-1.6v-65.6C365.1,350.6,364.4,350,363.6,350z"/>
	<path id="XMLID_7_" fill="#4F5D62" d="M516.8,370.4h-5c-1.1,0-1.9,0.8-1.9,1.9v44.5c0,1.1,0.8,1.9,1.9,1.9h5c1.1,0,1.9-0.8,1.9-1.9
		v-44.6C518.8,371.3,517.8,370.4,516.8,370.4z"/>
	<path id="XMLID_6_" fill="#4F5D62" d="M500.4,370.4h-6.3c-0.6,0-1.3-0.6-1.3-1.3v-17.9c0-0.6-0.6-1.3-1.3-1.3h-6.3
		c-0.6,0-1.3,0.6-1.3,1.3v17.9c0,0.6-0.6,1.3-1.3,1.3h-6.3c-0.6,0-1.3,0.6-1.3,1.3v6.1c0,0.6,0.6,1.3,1.3,1.3h6.3
		c0.6,0,1.3,0.6,1.3,1.3V417c0,1,0.8,1.6,1.6,1.6h5.5c1,0,1.6-0.8,1.6-1.6v-36.6c0-0.6,0.6-1.3,1.3-1.3h6.3c0.6,0,1.3-0.6,1.3-1.3
		v-6.3C501.7,370.9,501.2,370.4,500.4,370.4z"/>
	<path id="XMLID_5_" fill="#4F5D62" d="M465.6,406.1c-0.6-0.6-1.8-0.6-2.4,0c-2.9,2.7-6.6,4.3-11,4.3c-9.2,0-16.6-8.1-15.6-17.4
		c0.8-7.2,6.8-13,14-13.9c4.5-0.5,8.9,1.1,11.9,3.9c1,0.8,2.4,0.8,3.4-0.2l2.7-2.7c1-1,1-2.6,0-3.5c-4.7-4.3-11.1-6.8-18-6.3
		c-12.4,0.8-22.4,11.1-22.9,23.7c-0.5,13.9,10.6,25.1,24.5,25.1c6.6,0,12.7-2.6,17.1-6.9c0.6-0.6,0.6-1.8,0-2.4L465.6,406.1z"/>
	<path id="XMLID_4_" fill="#4F5D62" d="M272.8,406.1c-0.6-0.6-1.8-0.6-2.4,0c-2.9,2.7-6.6,4.3-11,4.3c-9.2,0-16.6-8.1-15.6-17.4
		c0.8-7.2,6.8-13,14-13.9c4.5-0.5,8.9,1.1,11.9,3.9c1,0.8,2.4,0.8,3.4-0.2l2.7-2.7c1-1,1-2.6,0-3.5c-4.7-4.3-11.1-6.8-18-6.3
		c-12.4,0.8-22.4,11.1-22.9,23.7c-0.5,13.9,10.6,25.1,24.5,25.1c6.6,0,12.7-2.6,17.1-6.9c0.6-0.6,0.6-1.8,0-2.4L272.8,406.1z"/>
	<path id="XMLID_3_" fill="#4F5D62" d="M570.6,370.9h-7.9c-0.2,0-0.3,0.2-0.3,0.3l-12.9,37.9c-0.2,0.3-0.6,0.3-0.6,0L536,371.3
		c0-0.2-0.2-0.3-0.3-0.3h-7.9c-0.3,0-0.5,0.3-0.3,0.5l15.9,46.9c0,0.2,0.2,0.3,0.3,0.3h11c0.2,0,0.3-0.2,0.3-0.3l15.9-46.9
		C571.1,371.3,571,370.9,570.6,370.9z"/>
</g>
</svg>
