<?xml version="1.0" encoding="utf-8"?>
<!-- Generator: Adobe Illustrator 19.1.0, SVG Export Plug-In . SVG Version: 6.00 Build 0)  -->
<svg version="1.1" id="Layer_1" xmlns="http://www.w3.org/2000/svg" xmlns:xlink="http://www.w3.org/1999/xlink" x="0px" y="0px"
	 viewBox="0 0 75 54.1" style="enable-background:new 0 0 75 54.1;" xml:space="preserve">
<style type="text/css">
	.st0{fill:#515F71;}
	.st1{fill:#7FADF2;}
</style>
<g>
	<path class="st0" d="M42.1,14.4h10.4c0.3,0,0.6-0.3,0.6-0.6s-0.3-0.6-0.6-0.6H42.1c-0.3,0-0.6,0.3-0.6,0.6S41.7,14.4,42.1,14.4z"/>
	<path class="st0" d="M42.1,20.3h10.4c0.3,0,0.6-0.3,0.6-0.6c0-0.3-0.3-0.6-0.6-0.6H42.1c-0.3,0-0.6,0.3-0.6,0.6
		C41.4,20,41.7,20.3,42.1,20.3z"/>
	<path class="st0" d="M42.1,26.1h10.4c0.3,0,0.6-0.3,0.6-0.6s-0.3-0.6-0.6-0.6H42.1c-0.3,0-0.6,0.3-0.6,0.6S41.7,26.1,42.1,26.1z"/>
	<path class="st0" d="M62.8,20.8h-4.2V6.3c0-0.2-0.1-0.4-0.2-0.6l-2.9-2.9c-0.3-0.3-0.9-0.3-1.2,0l-2.3,2.3l-2.3-2.3
		c-0.3-0.3-0.9-0.3-1.2,0L46,5.1l-2.3-2.3c-0.3-0.3-0.9-0.3-1.2,0l-2.3,2.3l-2.3-2.3c-0.3-0.3-0.9-0.3-1.2,0l-2.3,2.3l-2.3-2.3
		c-0.3-0.3-0.9-0.3-1.2,0l-2.3,2.3l-2.3-2.3c-0.3-0.3-0.9-0.3-1.2,0L22,5.7c-0.2,0.2-0.2,0.4-0.2,0.6v14.5h-4.2
		c-0.5,0-0.8,0.4-0.8,0.8v31.6c0,0.5,0.4,0.8,0.8,0.8h45.3c0.5,0,0.8-0.4,0.8-0.8V21.6C63.7,21.1,63.3,20.8,62.8,20.8z M58.6,22.5
		h2.1l-2.1,1.7V22.5z M23.4,6.7l2.1-2.1l2.3,2.3c0.3,0.3,0.9,0.3,1.2,0l2.3-2.3l2.3,2.3c0.3,0.3,0.9,0.3,1.2,0l2.3-2.3l2.3,2.3
		c0.3,0.3,0.9,0.3,1.2,0l2.3-2.3l2.3,2.3c0.3,0.3,0.9,0.3,1.2,0L49,4.6l2.3,2.3c0.3,0.3,0.9,0.3,1.2,0l2.3-2.3l2.1,2.1v18.8
		l-6.7,5.3H30.1l-6.7-5.3V6.7z M48.6,31.9l-5.8,4.6l-0.2,0.2l-0.2-0.2l-1.8-1.4c-0.2-0.2-0.5-0.2-0.8,0l-1.8,1.4l-0.2,0.2l-0.2-0.2
		l-5.8-4.6H48.6z M21.7,22.5v1.7l-2.1-1.7H21.7z M18.4,23.1l18.3,14.4L18.4,51.8V23.1z M19.6,52.4L40,36.5l0.2-0.1l0.2,0.1
		l20.4,15.9H19.6z M62,51.8l-18-14l-0.4-0.3L62,23.1V51.8z"/>
	<path class="st0" d="M32.7,25.9c0,0.5,0.4,0.9,0.9,0.9c0.5,0,0.9-0.4,0.9-0.9V25c1.8-0.2,3.2-1.1,3.6-2.5c0.1-0.3,0.2-0.6,0.2-1
		c0-0.2,0-0.5-0.1-0.7c-0.2-1.6-1.4-2.5-3.8-3.2v-2.7c0.5,0.1,1,0.3,1.5,0.6c0.2,0.1,0.4,0.2,0.6,0.2c0.7,0,1.2-0.5,1.2-1.2
		c0-0.5-0.3-0.9-0.6-1.1c-0.8-0.4-1.6-0.7-2.6-0.9v-0.2c0-0.5-0.4-0.9-0.9-0.9c-0.5,0-0.9,0.4-0.9,0.9v0.2C30.5,12.7,29,14.1,29,16
		c0,2.1,1.3,3.1,3.8,3.8v0.9v1.7v0.2c-0.2-0.1-0.5-0.1-0.7-0.2c-0.5-0.2-1-0.5-1.6-0.8c-0.2-0.1-0.5-0.2-0.7-0.2
		c-0.6,0-1.1,0.4-1.2,1c0,0.1,0,0.1,0,0.2c0,0.5,0.2,0.8,0.6,1.1c1.1,0.6,2.3,1.1,3.5,1.2V25.9z M34.5,22.5v-1.7v-0.5
		c0.4,0.2,0.7,0.3,0.9,0.5c0.2,0.2,0.3,0.5,0.3,0.8c0,0.4-0.2,0.7-0.5,0.9c-0.2,0.1-0.5,0.2-0.8,0.3V22.5z M31.6,15.9
		c0-0.6,0.4-1,1.2-1.1v2.4C31.8,16.8,31.6,16.4,31.6,15.9z"/>
</g>
<g>
	<path class="st1" d="M65.3,8.1c-0.8,0-1.5,0.7-1.5,1.5s0.7,1.5,1.5,1.5s1.5-0.7,1.5-1.5S66.1,8.1,65.3,8.1z M65.3,10.2
		c-0.3,0-0.6-0.3-0.6-0.6C64.7,9.3,65,9,65.3,9s0.6,0.3,0.6,0.6C65.9,9.9,65.6,10.2,65.3,10.2z"/>
	<path class="st1" d="M9.3,5.4H7.6V3.7c0-0.2-0.2-0.4-0.4-0.4S6.8,3.5,6.8,3.7v1.7H5.1c-0.2,0-0.4,0.2-0.4,0.4s0.2,0.4,0.4,0.4h1.7
		v1.7c0,0.2,0.2,0.4,0.4,0.4s0.4-0.2,0.4-0.4V6.2h1.7c0.2,0,0.4-0.2,0.4-0.4S9.5,5.4,9.3,5.4z"/>
	<path class="st1" d="M11.4,14.8c-0.6,0-1.1,0.5-1.1,1.1s0.5,1.1,1.1,1.1c0.6,0,1.1-0.5,1.1-1.1S12,14.8,11.4,14.8z M11.4,16.2
		c-0.1,0-0.3-0.1-0.3-0.2c0-0.1,0.1-0.2,0.3-0.2c0.1,0,0.3,0.1,0.3,0.2C11.7,16,11.5,16.2,11.4,16.2z"/>
	<path class="st1" d="M74.2,19.9h-1.1v-1.1c0-0.2-0.2-0.4-0.4-0.4s-0.4,0.2-0.4,0.4v1.1h-1.1c-0.2,0-0.4,0.2-0.4,0.4
		c0,0.2,0.2,0.4,0.4,0.4h1.1v1.1c0,0.2,0.2,0.4,0.4,0.4s0.4-0.2,0.4-0.4v-1.1h1.1c0.2,0,0.4-0.2,0.4-0.4
		C74.6,20,74.4,19.9,74.2,19.9z"/>
	<ellipse class="st1" cx="1.1" cy="25.5" rx="0.9" ry="0.9"/>
	<ellipse class="st1" cx="72.2" cy="1.1" rx="0.9" ry="0.9"/>
</g>
</svg>
