<?xml version="1.0" encoding="utf-8"?>
<!-- Generator: Adobe Illustrator 19.1.0, SVG Export Plug-In . SVG Version: 6.00 Build 0)  -->
<svg version="1.1" id="Layer_1" xmlns="http://www.w3.org/2000/svg" xmlns:xlink="http://www.w3.org/1999/xlink" x="0px" y="0px"
	 viewBox="76.7 173.5 382.3 55.5" style="enable-background:new 76.7 173.5 382.3 55.5;" xml:space="preserve">
<style type="text/css">
	.st0{fill:#515F71;}
</style>
<path id="XMLID_191_" class="st0" d="M267.9,191.5c5.4,0,9.7,4.4,9.7,9.7c0,5.3-4.4,9.7-9.7,9.7s-9.7-4.4-9.7-9.7
	S262.5,191.5,267.9,191.5 M267.9,186c-8.4,0-15.2,6.8-15.2,15.2c0,8.4,6.8,15.2,15.2,15.2s15.2-6.8,15.2-15.2S276.3,186,267.9,186
	L267.9,186z"/>
<path id="XMLID_190_" class="st0" d="M291.9,173.5H287c-0.2,0-0.3,0.1-0.3,0.3v41.8c0,0.2,0.1,0.3,0.3,0.3h4.9
	c0.2,0,0.3-0.1,0.3-0.3v-41.8C292.1,173.6,292,173.5,291.9,173.5z"/>
<path id="XMLID_188_" class="st0" d="M428.4,186.5h-4.8c-0.1,0-0.2,0.1-0.3,0.2l-7.8,22.9c-0.2,0.5-0.8,0.5-1,0l-7.8-22.9
	c0-0.1-0.1-0.2-0.3-0.2h-4.8c-0.2,0-0.3,0.2-0.3,0.4l9.9,28.8c0,0.1,0.1,0.2,0.3,0.2h6.8c0.1,0,0.2-0.1,0.3-0.2l9.9-28.8
	C428.7,186.7,428.6,186.5,428.4,186.5z"/>
<path id="XMLID_185_" class="st0" d="M158,210.9c-2.9,0-5.4-1.2-7.2-3.2c-0.1-0.2-0.1-0.4,0.1-0.5l16.8-7.1l4.9-2.1
	c0.2-0.1,0.2-0.2,0.2-0.3c-1.6-6.9-7.9-12-15.3-11.7c-7.8,0.3-14.3,6.6-14.6,14.4c-0.4,8.7,6.5,15.9,15.2,15.9
	c6.3,0,11.7-3.9,14-9.4c0.1-0.2,0-0.4-0.2-0.4l-4.9-0.9c-0.1,0-0.3,0-0.3,0.2C164.9,208.8,161.7,210.9,158,210.9z M158,191.5
	c2.9,0,5.5,1.3,7.2,3.3c0.1,0.2,0.1,0.4-0.1,0.5c0,0-16.2,6.9-16.4,7s-0.4-0.1-0.4-0.2c0-0.3,0-0.5,0-0.8
	C148.3,195.8,152.7,191.5,158,191.5z"/>
<path id="XMLID_182_" class="st0" d="M91.9,191.5c5.4,0,9.7,4.4,9.7,9.7c0,5.3-4.4,9.7-9.7,9.7s-9.7-4.4-9.7-9.7
	S86.6,191.5,91.9,191.5 M91.9,186c-8.4,0-15.2,6.8-15.2,15.2c0,8.4,6.8,15.2,15.2,15.2s15.2-6.8,15.2-15.2
	C107.1,192.8,100.3,186,91.9,186L91.9,186z"/>
<path id="XMLID_121_" class="st0" d="M124.8,185.7c-3.8,0.1-6.8,1.6-8.9,4.1c-0.2,0.2-0.5,0.1-0.5-0.2v-2.8c0-0.2-0.1-0.3-0.3-0.3
	h-4.9c-0.2,0-0.3,0.1-0.3,0.3v41.9c0,0.2,0.1,0.3,0.3,0.3h4.8c0.2,0,0.3-0.1,0.3-0.3v-16.5c0-0.3,0.3-0.4,0.5-0.2
	c2.1,2.5,5.2,4.1,9.2,4.1c9.3,0,16.7-8.4,14.9-18C138.7,190.8,132.1,185.6,124.8,185.7z M126.7,210.5c-6.6,1.1-12.3-4.6-11.2-11.2
	c0.7-4,3.9-7.3,7.9-7.9c6.6-1.1,12.3,4.6,11.2,11.2C134,206.6,130.7,209.8,126.7,210.5z"/>
<path id="XMLID_178_" class="st0" d="M190.3,186c-3.2,0-6.9,2-8.6,4.4c-0.1,0.2-0.5,0.1-0.5-0.1v-3.5c0-0.1-0.1-0.3-0.3-0.3H176
	c-0.1,0-0.3,0.1-0.3,0.3v14.5v14.4c0,0.1,0.1,0.3,0.3,0.3h4.9c0.1,0,0.3-0.1,0.3-0.3v-14.4c0-5.5,3.7-9.4,9-9.4c7,0,9.1,4.6,9.1,10
	v13.8c0,0.1,0.1,0.3,0.3,0.3h4.9c0.1,0,0.3-0.1,0.3-0.3v-13.8C204.9,193.5,200.9,186,190.3,186z"/>
<path id="XMLID_177_" class="st0" d="M247.9,208.6"/>
<path id="XMLID_176_" class="st0" d="M302.6,173.5h-4.9c-0.2,0-0.3,0.1-0.3,0.3v41.8c0,0.2,0.1,0.3,0.3,0.3h4.9
	c0.2,0,0.3-0.1,0.3-0.3v-41.8C302.9,173.6,302.7,173.5,302.6,173.5z"/>
<path id="XMLID_173_" class="st0" d="M321.9,210.9c-2.9,0-5.4-1.2-7.2-3.2c-0.1-0.2-0.1-0.4,0.1-0.5l16.8-7.1l4.9-2.1
	c0.2-0.1,0.2-0.2,0.2-0.3c-1.6-6.9-7.9-12-15.3-11.7c-7.8,0.3-14.3,6.6-14.6,14.4c-0.4,8.7,6.5,15.9,15.2,15.9
	c6.3,0,11.7-3.9,14-9.4c0.1-0.2,0-0.4-0.2-0.4l-4.9-0.9c-0.1,0-0.3,0-0.3,0.2C328.8,208.8,325.5,210.9,321.9,210.9z M321.9,191.5
	c2.9,0,5.5,1.3,7.2,3.3c0.1,0.2,0.1,0.4-0.1,0.5c0,0-16.2,6.9-16.4,7c-0.2,0.1-0.4-0.1-0.4-0.2c0-0.3,0-0.5,0-0.8
	C312.1,195.8,316.5,191.5,321.9,191.5z"/>
<path id="XMLID_172_" class="st0" d="M354.6,210.9c-6,0-10.7-5.4-9.6-11.6c0.6-3.4,4-6.9,7.4-7.6c3.7-0.8,7.2,0.5,9.4,3
	c0.1,0.1,0.3,0.1,0.4,0c0.8-0.8,3.3-3.3,3.5-3.5c0.1-0.1,0.1-0.3,0-0.4c-2.9-3.2-7.2-5.1-11.9-4.9c-7.7,0.4-14.1,6.7-14.5,14.4
	c-0.4,8.7,6.5,15.9,15.2,15.9c4.4,0,8.4-1.9,11.2-4.9c0.1-0.1,0.1-0.2,0-0.3c-0.6-0.6-2.8-2.8-3.5-3.5c-0.1-0.1-0.3-0.1-0.4,0
	C360.1,209.7,357.5,210.9,354.6,210.9z"/>
<path id="XMLID_171_" class="st0" d="M386.7,186.5h-5.5c-0.1,0-0.2-0.1-0.2-0.2v-12.5c0-0.2-0.1-0.3-0.3-0.3h-4.9
	c-0.2,0-0.3,0.1-0.3,0.3v12.5c0,0.1-0.1,0.2-0.2,0.2h-5.4c-0.2,0-0.3,0.1-0.3,0.3v4.9c0,0.2,0.1,0.3,0.3,0.3h5.4
	c0.1,0,0.2,0.1,0.2,0.2v23.4c0,0.2,0.1,0.3,0.3,0.3h4.9c0.2,0,0.3-0.1,0.3-0.3v-23.4c0-0.1,0.1-0.2,0.2-0.2h5.5
	c0.2,0,0.3-0.1,0.3-0.3v-4.9C387,186.7,386.8,186.5,386.7,186.5z"/>
<path id="XMLID_168_" class="st0" d="M444.2,210.9c-2.9,0-5.4-1.2-7.2-3.2c-0.1-0.2-0.1-0.4,0.1-0.5l16.8-7.1l4.9-2.1
	c0.2-0.1,0.2-0.2,0.2-0.3c-1.6-6.9-7.9-12-15.3-11.7c-7.8,0.3-14.3,6.6-14.6,14.4c-0.4,8.7,6.5,15.9,15.2,15.9
	c6.3,0,11.7-3.9,14-9.4c0.1-0.2,0-0.4-0.2-0.4l-4.9-0.9c-0.1,0-0.3,0-0.3,0.2C451.1,208.8,447.9,210.9,444.2,210.9z M444.2,191.5
	c2.9,0,5.5,1.3,7.2,3.3c0.1,0.2,0.1,0.4-0.1,0.5c0,0-16.2,6.9-16.4,7c-0.2,0.1-0.4-0.1-0.4-0.2c0-0.3,0-0.5,0-0.8
	C434.4,195.8,438.8,191.5,444.2,191.5z"/>
<path id="XMLID_167_" class="st0" d="M396.8,177.1h-4.9c-0.2,0-0.3,0.1-0.3,0.3v4.9c0,0.2,0.1,0.3,0.3,0.3h4.9
	c0.2,0,0.3-0.1,0.3-0.3v-4.9C397.1,177.2,397,177.1,396.8,177.1z"/>
<path id="XMLID_161_" class="st0" d="M396.8,186.5h-4.9c-0.2,0-0.3,0.1-0.3,0.3v28.8c0,0.2,0.1,0.3,0.3,0.3h4.9
	c0.2,0,0.3-0.1,0.3-0.3v-28.8C397.1,186.7,397,186.5,396.8,186.5z"/>
<path id="XMLID_125_" class="st0" d="M240,210.9c-6,0-10.7-5.4-9.6-11.6c0.6-3.4,4-6.9,7.4-7.6c3.7-0.8,7.2,0.5,9.4,3
	c0.1,0.1,0.3,0.1,0.4,0c0.8-0.8,3.3-3.3,3.5-3.5c0.1-0.1,0.1-0.3,0-0.4c-2.9-3.2-7.2-5.1-11.9-4.9c-7.7,0.4-14.1,6.7-14.5,14.4
	c-0.4,8.7,6.5,15.9,15.2,15.9c4.4,0,8.4-1.9,11.2-4.9c0.1-0.1,0.1-0.2,0-0.3c-0.6-0.6-2.8-2.8-3.5-3.5c-0.1-0.1-0.3-0.1-0.4,0
	C245.5,209.7,242.9,210.9,240,210.9z"/>
</svg>
